<svg width="16" height="15" viewBox="0 0 16 15" fill="none" xmlns="http://www.w3.org/2000/svg">
<path d="M0 2C0 0.89543 0.895431 0 2 0H14C15.1046 0 16 0.895431 16 2V13C16 14.1046 15.1046 15 14 15H2C0.895431 15 0 14.1046 0 13V2Z" fill="#2196F3"/>
<path d="M6.49574 10.3117L3.888 7.82401L3 8.66517L6.49574 12L14 4.84116L13.1182 4L6.49574 10.3117Z" fill="white"/>
<path fill-rule="evenodd" clip-rule="evenodd" d="M3.88801 7.82399L6.49574 10.3117L13.1182 3.99998L14 4.84114L6.49574 12L3 8.66516L3.88801 7.82399ZM6.4958 10.0353L13.1183 3.72363L14.2897 4.84114L6.49574 12.2764L2.70972 8.66464L3.88849 7.54805L6.4958 10.0353Z" fill="white"/>
</svg>
