<svg width="18" height="18" viewBox="0 0 18 18" fill="none" xmlns="http://www.w3.org/2000/svg">
<path d="M13.996 11.1229L12.1579 10.9131C11.7164 10.8624 11.2822 11.0144 10.971 11.3256L9.63945 12.6571C7.59144 11.615 5.91251 9.94332 4.87041 7.88806L6.20922 6.54925C6.5204 6.23807 6.67237 5.80386 6.62171 5.36241L6.41185 3.53873C6.325 2.80781 5.70988 2.25781 4.97173 2.25781H3.71976C2.902 2.25781 2.22175 2.93807 2.2724 3.75584C2.65595 9.93609 7.59868 14.8716 13.7717 15.2552C14.5894 15.3058 15.2697 14.6256 15.2697 13.8078V12.5558C15.2769 11.8249 14.7269 11.2098 13.996 11.1229Z" fill="#212121"/>
</svg>
